<?xml version="1.0" standalone="no"?>
<!DOCTYPE svg PUBLIC "-//W3C//DTD SVG 20010904//EN"
 "http://www.w3.org/TR/2001/REC-SVG-20010904/DTD/svg10.dtd">
<svg version="1.0" xmlns="http://www.w3.org/2000/svg"
 width="700.000000pt" height="700.000000pt" viewBox="0 0 700.000000 700.000000"
 preserveAspectRatio="xMidYMid meet">
<metadata>
Created by potrace 1.11, written by Peter Selinger 2001-2013
</metadata>
<g transform="translate(0.000000,700.000000) scale(0.100000,-0.100000)"
fill="#000000" stroke="none">
<path d="M278 6985 c-107 -29 -208 -119 -250 -223 l-23 -57 -2 -2426 c-3
-2695 -9 -2479 64 -2587 43 -63 91 -103 170 -140 l58 -27 413 -2 c227 -1 420
-4 428 -7 8 -3 13 -10 10 -14 -3 -4 -8 -44 -11 -88 -3 -43 -8 -90 -10 -104 -2
-14 -7 -54 -10 -90 -3 -36 -10 -105 -15 -155 -5 -49 -12 -124 -15 -165 -4 -41
-8 -86 -10 -100 -2 -14 -7 -59 -10 -100 -3 -41 -8 -86 -10 -100 -2 -14 -6 -59
-10 -100 -3 -41 -7 -88 -9 -105 -2 -16 -7 -68 -11 -115 -4 -47 -8 -92 -10
-100 -8 -41 -16 -170 -10 -170 3 0 47 34 98 76 50 42 112 93 136 113 25 20 49
41 55 47 6 6 18 15 27 20 9 5 38 28 65 51 27 23 117 96 199 163 83 67 161 132
175 143 14 12 70 58 125 102 55 44 102 83 105 86 3 3 43 36 90 74 47 38 182
148 300 244 118 97 223 183 234 191 10 8 23 20 30 25 31 28 154 122 176 136
72 44 13 43 1995 44 1737 2 1883 3 1925 19 103 38 174 104 223 206 l32 65 0
2450 0 2450 -29 60 c-41 82 -103 146 -184 186 l-67 34 -3195 2 c-2598 1 -3204
-1 -3242 -12z"/>
</g>
</svg>
